<svg xmlns="http://www.w3.org/2000/svg" width="200" height="200" viewBox="0 0 60 60">
<path d="M20.7638 23.2821C20.5904 18.6189 22.3199 14.2545 23.0377 13.0646C25.4128 9.13846 26.7424 4.58609 26.858 0C24.6805 5.20271 22.1802 9.65873 16.481 13.0983C11.6537 16.0128 5.62212 18.6912 0 19.1392C3.68063 20.8542 8.23807 20.9072 12.5739 19.2211C12.4631 19.2645 11.9091 26.476 8.14172 32.936C7.4528 34.1115 5.67993 39.1552 6.37848 39.1841C7.42872 39.2274 12.3475 32.305 13.6049 30.6671C14.1011 30.0167 14.7322 29.2941 15.662 29.6313C16.1582 29.8096 16.5291 30.2287 16.7026 30.7249C17.7769 33.7502 17.9889 36.5683 18.7886 39.5261C18.9042 39.9549 19.4149 40.1427 19.7714 39.8778C20.5085 39.3382 20.9758 38.6686 20.9758 37.6715C20.9758 31.9485 20.9565 28.3403 20.7686 23.2821H20.7638Z" fill="#630089">
</path>
<path d="M9.58218 6.30587C9.84233 7.29824 10.1507 8.28098 10.6228 9.18663C11.2635 10.4199 12.2415 11.5327 13.5326 12.0529C14.8237 12.5732 16.4376 12.3998 17.4108 11.4074C18.2924 10.5066 18.5043 9.15773 18.5333 7.90041C18.5573 6.88877 18.4658 5.80969 17.8636 5.00038C17.8492 4.98111 17.8347 4.96666 17.8202 4.94739C17.8251 4.9233 17.8347 4.90403 17.8395 4.87995C17.9792 4.1718 17.4734 3.46847 16.8375 3.13608C16.1967 2.80368 15.4548 2.76514 14.7322 2.7266C13.2773 2.65434 11.8272 2.5869 10.3723 2.51464C9.40874 2.46647 8.27179 2.31713 7.82858 1.45965C7.2312 2.66398 7.67923 4.44639 8.56567 5.45803C8.85954 5.79524 9.2064 6.07464 9.58699 6.30587H9.58218Z" fill="#630089">
</path>
<path d="M45.8537 29.4001C46.3113 29.2122 46.7642 29.0099 47.2122 28.7979C44.683 26.423 43.9122 24.1926 42.78 19.7799C42.6644 19.1055 42.6162 18.7105 42.5873 18.7008C46.9376 20.2809 49.9582 20.0738 53.6581 18.4937C49.3705 18.1661 45.5935 16.8992 42.0237 15.0011C42.2597 14.847 42.4235 14.6013 42.7271 14.8518C43.8688 15.8153 44.0374 9.36486 42.3416 7.21634C41.6575 6.34922 40.352 6.0361 39.1909 6.10354C38.0299 6.16616 36.84 6.57563 36.0547 7.36568C35.2694 8.15572 35.6934 8.99393 34.8407 10.0778C31.8008 7.34159 29.8978 4.3693 28.308 0.833387C28.414 5.08708 29.734 9.31669 32.1091 12.9634C32.3789 13.3777 32.7836 14.1966 33.1786 15.2902C35.0623 22.574 33.0389 26.5097 32.3211 31.3704C32.9233 31.433 33.5303 31.4716 34.1325 31.4908C34.1228 32.8108 34.118 34.2126 34.1132 35.7927C34.1132 36.7176 34.0843 39.2467 34.8166 39.7477C35.1731 39.9934 36.204 37.9171 36.3004 37.5173C36.8833 35.0942 37.1724 33.3021 37.7312 31.3848C39.3451 31.2355 40.9445 30.9513 42.5054 30.5322C44.4132 32.9264 47.8867 37.2668 48.7587 37.2331C49.4572 37.209 47.6892 32.5265 47.0051 31.433C46.5811 30.7586 46.2005 30.0793 45.8585 29.4001H45.8537Z" fill="#630089">
</path>
</svg>